<svg width="55px" height="24px" viewBox="0 0 55 24" version="1.1" xmlns="http://www.w3.org/2000/svg" xmlns:xlink="http://www.w3.org/1999/xlink">
    <g stroke="none" stroke-width="1" fill="none" fill-rule="evenodd">
        <g transform="translate(-20.000000, -19.000000)" fill="#C9C9C9" fill-rule="nonzero">
            <path d="M44.1303799,36.0932238 C44.1303799,36.5691242 43.9336054,37.0255896 43.5836658,37.362121 C42.8159793,38.0996259 42.047761,38.8366194 41.2779473,39.5723342 C37.8232251,42.8322901 32.3959715,43.8899602 27.9371675,42.2119063 C23.2254817,40.4387235 19.910629,35.703502 20.0018366,30.8028278 C20.0810782,26.5473426 22.7056247,22.4171616 26.6174487,20.410248 C28.3945353,19.4985958 30.3979125,19.017581 32.4228285,19.0001918 C35.8230388,19.0280656 39.0190291,20.3071917 41.3329909,22.5181721 L43.3975278,24.5036049 C43.4289053,24.5422191 43.4624102,24.5795546 43.4980423,24.6156116 L54.1345022,34.8445287 C54.1658797,34.8731697 54.1977891,34.9007878 54.2307621,34.927383 C54.9588278,35.6275523 55.6874253,36.3269545 56.4176183,37.0248224 C59.4407661,39.8774117 64.6576837,40.2134316 68.0323665,37.6339544 C70.7340273,35.5687361 71.9803545,31.8865816 71.0105753,28.6634498 C69.9814978,25.2436671 66.5395394,22.6575411 62.7401959,22.5813357 C62.6699953,22.5803128 62.5997947,22.5800571 62.5293281,22.5803128 C60.246212,22.5997477 58.0013872,23.4996367 56.3750724,25.053665 C56.3750724,25.053665 55.1340635,26.2473796 54.1137611,27.2285885 C53.7643534,27.5643527 53.290765,27.7530762 52.7967014,27.7530762 C52.3029038,27.7530762 51.8290495,27.5643527 51.4799077,27.2285885 C51.1297023,26.8918014 50.9331937,26.4355917 50.9331937,25.959947 C50.9331937,25.4843024 51.1299682,25.0280927 51.4796418,24.691817 C52.2529124,23.9489419 53.0267149,23.2065782 53.8021128,22.4654932 C56.1349544,20.2642302 59.3280196,18.99073 62.6569656,19.0001918 C65.8276943,19.0272984 68.9407202,20.2222917 71.2472365,22.3575781 C71.7740072,22.8452417 72.0970897,23.2032538 72.4725567,23.669181 C76.1338921,28.2161904 75.8453781,35.2825821 71.4235358,39.513518 C66.9471817,43.8188692 59.0219555,44.1779042 54.1509887,39.8912207 C54.0135125,39.7702638 53.8792271,39.6459824 53.7470691,39.5196553 L47.5406948,33.5510822 L44.8996618,31.0265854 C42.8258181,29.0168589 40.7506448,27.0086667 38.6621759,25.013005 C37.0406476,23.4830147 34.8327844,22.6000035 32.550466,22.5803128 C27.9259992,22.6191827 23.8067642,26.4164124 23.7240657,30.8667586 C23.6605129,34.2763124 25.9715497,37.6275614 29.2938479,38.8780465 C32.4448992,40.0638337 36.2519541,39.3276074 38.7047217,36.9841625 C38.7047217,36.9841625 39.9361578,35.7999096 40.951142,34.8238152 C41.3000179,34.488051 41.7736063,34.2995832 42.267138,34.2995832 C42.7609357,34.2995832 43.2342581,34.488051 43.5833999,34.8238152 C43.9338713,35.160858 44.1303799,35.6173234 44.1303799,36.0932238 Z" id="logo"></path>
        </g>
    </g>
</svg>
